:SAMPLES-PER-SECOND 30
:FULLY-SPECIFIED
:DEGREES
185
root  -15.1475 34.9205 -7.77259 -176.095 0.55806 178.718
RightUpLeg  -5.41982 -7.79452 0.201514
RightLeg  8.68579 -0.587568 -0.0503034
RightFoot  -3.418 -0.00977073 0.192106
RightToes  -27.3626 -0.126188 -0.233224
Spine  -3.34786 0.264362 -0.239266
Spine1  -6.70417 0.631697 0.192381
HEad  -68.0054 -3.40889 6.97315
LeftShoulder1  -1.94126e-019 -3.10601e-018 -2.51263e-017
LeftArm  -7.11236 20.4977 -72.1128
LeftForeArm  24.9956 -27.8346 -4.96312
LeftHand  -0.36412 -1.43226 6.34427
RightShoulder  -4.96962e-017 0 -2.36833e-017
RightArm  -26.8299 -20.0818 74.6782
RightForeArm  58.4664 10.8672 1.53166
RightHand  -0.524336 -0.437855 -12.2963
LeftUpLeg  -4.456 -4.23859 -2.07089
LeftLeg  7.46787 12.0455 0.790174
LeftFoot  0.419268 -0.000277683 0.237507
LeftToes  -19.7135 1.31424e-006 1.14295e-007
186
root  -15.1555 34.9091 -7.78452 -175.707 0.480637 178.785
RightUpLeg  -5.73943 -7.8539 0.31378
RightLeg  8.58802 -0.578965 -0.0485512
RightFoot  -3.26729 -0.00987688 0.187473
RightToes  -27.3211 -0.128186 -0.232922
Spine  -3.3376 0.279317 -0.221327
Spine1  -6.69333 0.661394 0.216773
HEad  -67.8749 -3.502 7.04045
LeftShoulder1  -1.94126e-019 -3.10601e-018 -2.51263e-017
LeftArm  -7.80162 21.1703 -72.6827
LeftForeArm  25.1697 -26.8282 -4.78599
LeftHand  -0.364004 -1.5293 6.27263
RightShoulder  -4.96962e-017 0 -2.36833e-017
RightArm  -27.8363 -20.5113 74.8733
RightForeArm  59.7404 10.337 1.53371
RightHand  -0.528325 -0.492099 -12.5215
LeftUpLeg  -4.92085 -3.97475 -1.95375
LeftLeg  7.57806 11.7035 0.790462
LeftFoot  0.906048 -0.00137202 0.335097
LeftToes  -20.3982 1.31424e-006 1.14295e-007
187
root  -15.1746 34.896 -7.81184 -175.378 0.307587 178.781
RightUpLeg  -5.97496 -8.11737 0.311345
RightLeg  8.50782 -0.496032 -0.0407367
RightFoot  -3.13057 -0.00964024 0.178928
RightToes  -27.4473 -0.130443 -0.235031
Spine  -3.31925 0.267276 -0.221086
Spine1  -6.66486 0.632109 0.210294
HEad  -67.7516 -3.60353 7.09803
LeftShoulder1  -1.94126e-019 -3.10601e-018 -2.51263e-017
LeftArm  -8.33492 21.8239 -73.2417
LeftForeArm  25.1729 -25.8908 -4.61381
LeftHand  -0.366864 -1.35048 6.47391
RightShoulder  -4.96962e-017 0 -2.36833e-017
RightArm  -28.655 -21.0228 75.0165
RightForeArm  60.4729 9.85738 1.52198
RightHand  -0.53376 -0.592308 -12.9044
LeftUpLeg  -5.31124 -4.04398 -1.96489
LeftLeg  7.67367 11.544 0.799031
LeftFoot  1.37034 -0.00317201 0.426804
LeftToes  -20.3371 1.31424e-006 1.14295e-007
188
root  -15.1974 34.8826 -7.84434 -175.101 0.146133 178.788
RightUpLeg  -6.24513 -8.44538 0.300099
RightLeg  8.60566 -0.328089 -0.0271388
RightFoot  -2.95547 -0.00898221 0.165439
RightToes  -27.9278 -0.132664 -0.238251
Spine  -3.29639 0.263007 -0.206705
Spine1  -6.62621 0.617981 0.230819
HEad  -67.6085 -3.5709 7.12178
LeftShoulder1  -1.94126e-019 -3.10601e-018 -2.51263e-017
LeftArm  -8.92072 22.4095 -73.8296
LeftForeArm  25.3927 -24.9818 -4.44265
LeftHand  -0.372216 -1.42303 6.5022
RightShoulder  -4.96962e-017 0 -2.36833e-017
RightArm  -29.3962 -21.5457 75.097
RightForeArm  61.0732 9.4487 1.50119
RightHand  -0.52983 -0.67677 -13.0306
LeftUpLeg  -5.65138 -4.2286 -1.98874
LeftLeg  7.79367 11.5675 0.824799
LeftFoot  1.72715 -0.00438663 0.499636
LeftToes  -20.2171 1.31424e-006 1.14295e-007
189
root  -15.2142 34.8656 -7.88764 -174.861 0.0920258 178.77
RightUpLeg  -6.50867 -8.68061 0.2655
RightLeg  8.76096 -0.134179 -0.0108207
RightFoot  -2.70175 -0.00818987 0.151201
RightToes  -28.4323 -0.13455 -0.241477
Spine  -3.27476 0.294321 -0.197419
Spine1  -6.58886 0.673488 0.239471
HEad  -67.328 -3.52839 7.22651
LeftShoulder1  -1.94126e-019 -3.10601e-018 -2.51263e-017
LeftArm  -9.33515 22.9184 -74.4033
LeftForeArm  25.7877 -24.1216 -4.27953
LeftHand  -0.371298 -1.30167 6.618
RightShoulder  -4.96962e-017 0 -2.36833e-017
RightArm  -30.0894 -22.0236 75.1405
RightForeArm  61.8063 9.06463 1.47293
RightHand  -0.500476 -1.19951 -13.7451
LeftUpLeg  -5.95739 -4.45643 -2.00937
LeftLeg  7.96345 11.6605 0.865813
LeftFoot  2.21496 -0.00852313 0.602448
LeftToes  -20.8297 1.31424e-006 1.14295e-007
190
root  -15.2311 34.8514 -7.9401 -174.678 0.0583801 178.755
RightUpLeg  -6.7023 -8.95366 0.220946
RightLeg  8.93199 0.0507015 0.00574382
RightFoot  -2.55783 -0.0075158 0.139912
RightToes  -28.8088 -0.135805 -0.243602
Spine  -3.259 0.313882 -0.201044
Spine1  -6.56073 0.703145 0.227306
HEad  -66.8566 -3.56201 7.40842
LeftShoulder1  -1.94126e-019 -3.10601e-018 -2.51263e-017
LeftArm  -9.55349 23.4114 -74.8643
LeftForeArm  26.5585 -23.4028 -4.14051
LeftHand  -0.375836 -1.45875 6.53263
RightShoulder  -4.96962e-017 0 -2.36833e-017
RightArm  -30.5873 -22.4723 75.2369
RightForeArm  62.513 8.73169 1.4402
RightHand  -0.494799 -1.24164 -13.9063
LeftUpLeg  -6.25657 -4.37269 -2.02482
LeftLeg  8.28404 11.4287 0.912661
LeftFoot  2.72482 -0.0132071 0.695863
LeftToes  -20.8753 1.31424e-006 1.14295e-007
191
root  -15.2495 34.8401 -8.007 -174.526 -0.00888062 178.702
RightUpLeg  -6.82376 -9.06733 0.140471
RightLeg  9.06704 0.0694599 0.00762358
RightFoot  -2.33427 -0.00738762 0.137776
RightToes  -29.2003 -0.136368 -0.244441
Spine  -3.24742 0.312023 -0.227405
Spine1  -6.53994 0.688262 0.173957
HEad  -66.3938 -3.54952 7.54786
LeftShoulder1  -1.94126e-019 -3.10601e-018 -2.51263e-017
LeftArm  -9.74254 23.89 -75.2777
LeftForeArm  27.0512 -22.7873 -4.02032
LeftHand  -0.375781 -1.29809 6.67553
RightShoulder  -4.96962e-017 0 -2.36833e-017
RightArm  -30.9678 -22.9829 75.4315
RightForeArm  62.8929 8.63082 1.42896
RightHand  -0.494435 -1.28758 -13.9369
LeftUpLeg  -6.49616 -4.39016 -2.11539
LeftLeg  8.61187 11.4171 0.977029
LeftFoot  2.78464 -0.0130221 0.70711
LeftToes  -20.372 1.31424e-006 1.14295e-007
192
root  -15.2666 34.8333 -8.08899 -174.398 0.0127869 178.674
RightUpLeg  -6.88219 -8.96542 0.0935231
RightLeg  9.13275 0.0203105 0.00301252
RightFoot  -2.00901 -0.00739078 0.13896
RightToes  -28.9933 -0.136459 -0.244651
Spine  -3.221 0.319208 -0.231269
Spine1  -6.48778 0.692858 0.168344
HEad  -66.086 -3.58843 7.62343
LeftShoulder1  -1.94126e-019 -3.10601e-018 -2.51263e-017
LeftArm  -10.4351 24.2248 -75.7571
LeftForeArm  27.6622 -21.8729 -3.86204
LeftHand  -0.409816 -1.71705 6.87121
RightShoulder  -4.96962e-017 0 -2.36833e-017
RightArm  -31.097 -23.4828 75.6535
RightForeArm  62.5076 8.77611 1.44516
RightHand  -0.498899 -1.29214 -13.8534
LeftUpLeg  -6.60988 -4.63262 -2.19942
LeftLeg  8.8212 11.7275 1.04608
LeftFoot  2.78654 -0.0135239 0.72333
LeftToes  -19.7922 1.31424e-006 1.14295e-007
193
root  -15.2796 34.8257 -8.18101 -174.277 0.125641 178.603
RightUpLeg  -6.97041 -8.88728 -0.00340687
RightLeg  9.28956 0.104936 0.0113623
RightFoot  -1.75217 -0.00653654 0.13566
RightToes  -29.2571 -0.136198 -0.24439
Spine  -3.2179 0.330767 -0.246688
Spine1  -6.4819 0.707341 0.141577
HEad  -65.9226 -3.6361 7.55427
LeftShoulder1  -1.94126e-019 -3.10601e-018 -2.51263e-017
LeftArm  -11.4314 24.7003 -76.251
LeftForeArm  27.7493 -21.197 -3.74158
LeftHand  -0.401791 -1.34686 7.0804
RightShoulder  -4.96962e-017 0 -2.36833e-017
RightArm  -31.211 -23.9972 75.9387
RightForeArm  61.9474 9.08053 1.47423
RightHand  -0.503868 -1.18906 -13.765
LeftUpLeg  -6.64832 -4.8427 -2.31883
LeftLeg  8.95164 12.0805 1.10464
LeftFoot  2.82163 -0.0149713 0.749332
LeftToes  -18.9832 1.31424e-006 1.14295e-007
194
root  -15.2909 34.8199 -8.27586 -174.171 0.302597 178.522
RightUpLeg  -7.06522 -8.96226 -0.119493
RightLeg  9.44926 0.411538 0.042598
RightFoot  -1.28074 -0.00430057 0.127667
RightToes  -29.5669 -0.135707 -0.243816
Spine  -3.22326 0.327551 -0.26479
Spine1  -6.49352 0.695015 0.110875
HEad  -65.7682 -3.57699 7.36576
LeftShoulder1  -1.94126e-019 -3.10601e-018 -2.51263e-017
LeftArm  -12.2796 25.1917 -76.7116
LeftForeArm  27.4822 -20.4249 -3.60325
LeftHand  -0.408502 -1.22354 7.32049
RightShoulder  -4.96962e-017 0 -2.36833e-017
RightArm  -31.1213 -24.3982 76.2586
RightForeArm  61.4198 9.42646 1.50028
RightHand  -0.507947 -1.105 -13.6962
LeftUpLeg  -6.60068 -4.84883 -2.44125
LeftLeg  8.95518 12.2796 1.12335
LeftFoot  2.84901 -0.0161051 0.766335
LeftToes  -18.6752 1.31424e-006 1.14295e-007
195
root  -15.2989 34.8117 -8.37319 -174.054 0.547577 178.452
RightUpLeg  -7.18622 -9.06388 -0.225324
RightLeg  9.6397 0.818295 0.0863978
RightFoot  -0.884265 -0.0017373 0.12231
RightToes  -29.9954 -0.135106 -0.243086
Spine  -3.24174 0.341516 -0.281994
Spine1  -6.53048 0.718982 0.0822466
HEad  -65.7099 -3.48902 7.16768
LeftShoulder1  -1.94126e-019 -3.10601e-018 -2.51263e-017
LeftArm  -13.0218 25.5888 -77.1385
LeftForeArm  27.9406 -19.5823 -3.45653
LeftHand  -0.40764 -1.17731 7.35299
RightShoulder  -4.96962e-017 0 -2.36833e-017
RightArm  -30.8912 -24.732 76.5571
RightForeArm  60.9358 9.79168 1.51981
RightHand  -0.511198 -1.05881 -13.6418
LeftUpLeg  -6.48429 -4.91082 -2.55968
LeftLeg  8.84824 12.595 1.12827
LeftFoot  2.71469 -0.0155401 0.753593
LeftToes  -18.2813 1.31424e-006 1.14295e-007
196
root  -15.3013 34.8035 -8.46577 -173.949 0.812378 178.41
RightUpLeg  -7.28528 -8.92374 -0.283278
RightLeg  9.77249 1.01627 0.109421
RightFoot  -0.331611 0.000202188 0.128015
RightToes  -30.1773 -0.134517 -0.242359
Spine  -3.26047 0.362485 -0.280808
Spine1  -6.5677 0.759798 0.0901482
HEad  -65.7236 -3.37419 7.01623
LeftShoulder1  -1.94126e-019 -3.10601e-018 -2.51263e-017
LeftArm  -13.8515 25.996 -77.6353
LeftForeArm  28.8258 -18.7521 -3.30777
LeftHand  -0.415831 -1.2918 7.37877
RightShoulder  -4.96962e-017 0 -2.36833e-017
RightArm  -30.1555 -25.0401 76.7805
RightForeArm  60.064 10.2717 1.53334
RightHand  -0.506168 -1.05528 -13.4966
LeftUpLeg  -6.42214 -5.1644 -2.64607
LeftLeg  8.88065 13.122 1.18212
LeftFoot  2.56092 -0.0154202 0.74522
LeftToes  -17.9645 1.31424e-006 1.14295e-007
197
root  -15.294 34.7963 -8.55758 -173.886 1.00171 178.419
RightUpLeg  -7.31071 -8.91406 -0.25695
RightLeg  9.80261 1.31244 0.141709
RightFoot  0.506532 0.00131027 0.142584
RightToes  -29.2752 -0.13406 -0.241792
Spine  -3.25489 0.349355 -0.279008
Spine1  -6.55759 0.734247 0.0972971
HEad  -65.82 -3.17499 7.03803
LeftShoulder1  -1.94126e-019 -3.10601e-018 -2.51263e-017
LeftArm  -14.0576 26.2044 -78.004
LeftForeArm  29.1233 -17.9655 -3.17447
LeftHand  -0.432878 -1.39637 7.56544
RightShoulder  -4.96962e-017 0 -2.36833e-017
RightArm  -29.9462 -25.1172 77.0498
RightForeArm  60.0538 10.5282 1.53405
RightHand  -0.52543 -0.865776 -13.4432
LeftUpLeg  -6.40549 -4.69077 -2.62408
LeftLeg  9.02938 12.7977 1.18657
LeftFoot  2.42082 -0.012963 0.698759
LeftToes  -18.1403 1.31424e-006 1.14295e-007
198
root  -15.2809 34.7925 -8.64996 -173.836 1.14766 178.455
RightUpLeg  -7.2048 -8.76517 -0.19537
RightLeg  9.69498 1.30791 0.138748
RightFoot  0.822387 0.00237406 0.149606
RightToes  -28.5192 -0.133858 -0.241544
Spine  -3.25677 0.338552 -0.268043
Spine1  -6.56218 0.714391 0.122151
HEad  -65.8404 -3.07739 7.04219
LeftShoulder1  -1.94126e-019 -3.10601e-018 -2.51263e-017
LeftArm  -14.1787 26.3999 -78.3655
LeftForeArm  29.568 -17.3803 -3.07533
LeftHand  -0.427874 -1.33295 7.54519
RightShoulder  -4.96962e-017 0 -2.36833e-017
RightArm  -29.3002 -25.2049 77.2676
RightForeArm  59.8684 10.825 1.53062
RightHand  -0.525349 -0.850159 -13.3964
LeftUpLeg  -6.36322 -3.98918 -2.55697
LeftLeg  9.15891 12.2295 1.16232
LeftFoot  2.20667 -0.00897396 0.627515
LeftToes  -18.2801 1.31424e-006 1.14295e-007
199
root  -15.2692 34.7896 -8.74788 -173.78 1.10394 178.526
RightUpLeg  -7.02201 -8.9494 -0.127525
RightLeg  9.52246 1.44806 0.149114
RightFoot  0.946823 0.00309979 0.154248
RightToes  -28.4318 -0.13475 -0.242503
Spine  -3.28548 0.282853 -0.244486
Spine1  -6.61955 0.605076 0.174668
HEad  -65.5968 -3.0389 6.95408
LeftShoulder1  -1.94126e-019 -3.10601e-018 -2.51263e-017
LeftArm  -14.085 26.6187 -78.6977
LeftForeArm  30.1527 -17.0519 -3.01982
LeftHand  -0.428211 -1.33633 7.53618
RightShoulder  -4.96962e-017 0 -2.36833e-017
RightArm  -28.8158 -25.2971 77.4363
RightForeArm  59.7029 11.0107 1.52591
RightHand  -0.52544 -0.819232 -13.3053
LeftUpLeg  -6.30992 -4.01047 -2.48033
LeftLeg  9.26464 12.1863 1.18078
LeftFoot  1.93231 -0.00588093 0.566784
LeftToes  -17.9185 1.31424e-006 1.14295e-007
